<svg width="464" height="384" viewBox="0 0 464 384" fill="none" xmlns="http://www.w3.org/2000/svg">
<path fill-rule="evenodd" clip-rule="evenodd" d="M368 1.30698C366.075 1.91398 362.235 4.68099 359.466 7.45499C352.407 14.529 350.458 21.973 353.199 31.384C354.134 34.594 357.456 38.618 368.295 49.667L382.191 63.834L343.846 64.287C302.24 64.779 300.306 64.994 283.917 70.966C266.37 77.359 247.098 90.881 234.025 105.972L228.835 111.963L233.381 119.257C240.158 130.131 248.767 149.205 252.641 161.932C252.886 162.737 255.047 159.876 257.578 155.395C265.617 141.161 279.018 127.097 290.87 120.455C293.274 119.108 298.449 116.78 302.37 115.282L309.5 112.557L345.995 112.21L382.49 111.863L368.444 126.182C357.476 137.363 354.135 141.402 353.199 144.616C350.459 154.023 352.407 161.466 359.466 168.555C367.056 176.177 376.803 178.034 386.09 173.627C388.07 172.688 405.316 156.168 425.65 135.731C458.644 102.572 461.808 99.097 462.98 94.75C464.478 89.19 463.968 82.843 461.627 77.91C460.687 75.928 444.19 58.716 423.731 38.371C393.117 7.92799 386.862 2.16098 383.384 1.17098C378.431 -0.238019 372.744 -0.188018 368 1.30698ZM16 65.307C11.092 66.854 2.721 75.522 1.216 80.616C-1.323 89.208 0.320998 96.812 6.15 103.433C13.552 111.842 10.368 111.434 73 112.016L128.5 112.533L135.806 115.333C166.123 126.954 186.211 154.44 195.492 197C204.608 238.801 223.71 272.332 250.598 293.729C261.84 302.675 274.481 309.814 286.067 313.761C302.3 319.29 309.33 320 347.808 320H382.355L368.376 334.25C353.862 349.046 352 351.975 352 360C352 372.391 363.609 384 376 384C385.078 384 385.422 383.724 423.731 345.629C444.19 325.284 460.687 308.072 461.627 306.09C463.968 301.157 464.478 294.81 462.98 289.25C461.808 284.903 458.644 281.428 425.65 248.269C405.316 227.832 388.07 211.312 386.09 210.373C376.803 205.966 367.056 207.823 359.466 215.445C352.407 222.534 350.459 229.977 353.199 239.384C354.135 242.598 357.476 246.637 368.444 257.818L382.49 272.137L345.995 271.772C312.034 271.432 309.117 271.263 303.978 269.336C291.071 264.495 280.518 257.626 272.321 248.733C257.47 232.62 248.356 213.778 242.532 187.147C238.514 168.777 233.826 155.02 226.634 140.5C218.48 124.037 210.043 112.097 198 99.978C183.533 85.42 169.412 76.28 152 70.202C135.354 64.393 130.073 63.989 72.074 64.102C36.804 64.171 18.348 64.567 16 65.307ZM180.242 228.856C172.551 242.662 158.93 256.932 147.13 263.545C144.726 264.892 139.551 267.225 135.63 268.731L128.5 271.467L73 271.984C10.368 272.566 13.552 272.158 6.15 280.567C0.320998 287.188 -1.323 294.792 1.216 303.384C2.927 309.176 11.145 317.233 17.008 318.867C24.197 320.872 130.18 319.876 139.006 317.722C164.42 311.517 186.602 297.916 204.168 277.769L209.165 272.037L204.636 264.769C198.993 255.711 191.698 240.399 188.019 229.886C186.479 225.485 185.057 221.734 184.859 221.548C184.662 221.363 182.584 224.651 180.242 228.856Z" fill="#F7D633"/>
</svg>
